<?xml version="1.0" standalone="no"?>
<!DOCTYPE svg PUBLIC "-//W3C//DTD SVG 20010904//EN"
 "http://www.w3.org/TR/2001/REC-SVG-20010904/DTD/svg10.dtd">
<svg version="1.0" xmlns="http://www.w3.org/2000/svg"
 width="1280.000000pt" height="914.000000pt" viewBox="0 0 1280.000000 914.000000"
 preserveAspectRatio="xMidYMid meet">
<metadata>
Created by potrace 1.15, written by Peter Selinger 2001-2017
</metadata>
<g transform="translate(0.000000,914.000000) scale(0.100000,-0.100000)"
fill="#fff" stroke="none">
<path d="M10832 9109 c-65 -32 -102 -69 -102 -101 0 -32 57 -169 105 -251 25
-42 48 -92 52 -110 3 -17 26 -76 50 -131 116 -259 152 -486 133 -838 -16 -293
-49 -457 -136 -683 -107 -276 -231 -492 -496 -857 -85 -117 -175 -242 -200
-278 -71 -101 -164 -196 -413 -423 -319 -291 -411 -359 -785 -582 -251 -150
-324 -197 -480 -315 -63 -47 -144 -106 -180 -130 -36 -23 -90 -64 -120 -90
-30 -25 -80 -63 -112 -83 -31 -19 -89 -66 -129 -104 -94 -89 -251 -272 -279
-326 -11 -23 -36 -66 -55 -95 -55 -87 -80 -209 -79 -382 1 -168 16 -229 79
-325 41 -61 82 -95 182 -151 112 -63 145 -125 129 -246 -9 -67 -24 -93 -88
-154 -83 -81 -140 -119 -279 -190 -152 -77 -213 -123 -258 -193 -47 -73 -61
-127 -72 -291 l-10 -145 -88 -90 c-114 -117 -134 -150 -166 -270 -28 -111 -35
-120 -154 -204 -78 -56 -240 -217 -247 -247 -15 -58 53 -110 165 -126 102 -14
340 1 486 32 264 55 411 26 476 -94 27 -50 70 -214 90 -341 23 -154 105 -262
215 -285 77 -16 165 -8 203 19 28 20 41 21 209 20 l180 -1 70 32 c38 18 87 50
108 71 33 33 44 39 81 39 27 0 63 -10 93 -25 67 -34 113 -39 199 -20 102 21
149 45 195 95 59 65 88 140 94 238 6 110 10 113 185 123 143 7 209 25 272 74
37 28 80 94 96 147 16 55 12 164 -11 264 -12 53 -19 106 -15 121 7 28 -2 28
139 3 126 -22 306 15 314 65 2 11 21 36 42 55 57 54 83 142 84 294 l1 118 90
23 c50 13 176 50 280 83 105 33 213 65 242 72 72 16 292 129 452 230 171 108
308 238 364 346 39 75 44 102 27 134 -16 31 -3 62 76 181 40 61 80 130 88 152
47 132 77 266 96 420 22 183 29 209 114 399 55 126 75 189 96 300 7 36 26 79
51 118 84 130 161 309 197 455 23 97 23 290 -1 367 -22 70 -81 161 -135 210
l-42 38 0 334 0 334 -118 234 c-65 128 -134 258 -154 288 -56 84 -58 130 -14
454 16 116 10 152 -48 332 -27 83 -57 146 -121 253 -86 145 -109 177 -202 288
-63 75 -77 102 -92 171 -16 76 -78 195 -135 261 -52 59 -70 94 -131 254 -48
128 -115 226 -243 359 -163 169 -354 307 -423 308 -14 0 -53 -14 -87 -31z
m258 -359 c19 -10 62 -38 95 -62 250 -185 345 -364 345 -649 0 -80 4 -121 13
-133 13 -17 15 -17 35 9 13 16 32 59 43 97 19 61 23 67 34 51 34 -50 66 -266
69 -463 1 -116 -1 -129 -26 -182 -37 -80 -81 -141 -160 -225 -62 -66 -86 -113
-57 -113 6 0 53 23 104 50 51 28 96 50 100 50 19 0 -33 -249 -90 -428 -24 -77
-32 -90 -98 -156 -40 -40 -115 -102 -167 -137 -67 -44 -90 -64 -77 -67 29 -6
116 26 181 65 47 29 60 33 67 22 15 -22 0 -80 -30 -124 -15 -22 -65 -99 -109
-171 -79 -127 -137 -194 -168 -194 -19 0 -103 -42 -134 -69 -33 -27 -8 -28 55
-1 60 26 75 25 75 -3 0 -47 -227 -372 -279 -398 -14 -8 -61 -35 -105 -61 -43
-26 -95 -51 -115 -54 -49 -9 -88 -30 -101 -54 -18 -33 15 -36 110 -11 47 13
100 26 119 29 l34 5 -22 -31 c-35 -50 -170 -190 -252 -262 -66 -59 -86 -70
-164 -94 -79 -25 -89 -26 -97 -12 -5 9 -15 16 -23 16 -21 0 -22 17 -8 109 19
125 22 363 4 384 -7 10 -17 17 -21 17 -16 0 -29 -67 -35 -185 -3 -66 -13 -145
-21 -175 -33 -116 -138 -275 -307 -462 -206 -227 -631 -526 -1011 -711 -33
-16 -95 -35 -139 -44 -144 -27 -221 -72 -262 -153 -29 -57 -33 -105 -9 -114
20 -8 47 7 106 56 112 92 209 90 318 -8 65 -59 85 -105 85 -199 0 -96 -27
-157 -98 -222 -58 -53 -88 -68 -167 -83 -36 -7 -76 -19 -89 -28 l-25 -15 25
-20 c22 -17 33 -18 114 -11 129 11 173 7 232 -22 63 -30 107 -78 144 -159 42
-88 47 -141 19 -195 -30 -58 -88 -135 -138 -184 l-40 -38 -109 26 c-60 14
-118 26 -129 26 -28 0 -44 -19 -44 -53 0 -30 23 -56 134 -156 42 -37 81 -113
91 -177 16 -99 -46 -190 -170 -249 -41 -20 -88 -35 -108 -35 -31 0 -40 6 -71
48 -47 64 -121 132 -144 132 -20 0 -42 -18 -42 -36 0 -6 28 -58 63 -115 87
-144 110 -201 111 -274 1 -78 -23 -120 -94 -162 -40 -24 -66 -33 -100 -33 -52
0 -77 14 -186 100 -62 50 -82 61 -108 58 -23 -2 -35 -11 -45 -32 -16 -33 -7
-55 54 -140 48 -66 69 -142 62 -225 -7 -94 -20 -116 -91 -151 -122 -61 -206
-49 -259 35 -30 46 -53 57 -64 29 -16 -41 134 -409 167 -409 24 0 24 58 0 111
-11 26 -19 49 -16 51 9 9 70 -76 126 -176 65 -117 81 -137 105 -127 20 7 19
37 -5 125 -48 172 11 87 73 -104 19 -60 49 -175 66 -255 50 -239 51 -211 -11
-253 -64 -44 -92 -46 -144 -8 -92 66 -124 127 -154 294 -26 148 -45 201 -116
333 -72 134 -81 139 -239 131 -119 -6 -205 -23 -306 -61 -72 -27 -228 -46
-380 -46 -79 0 -101 3 -119 18 l-23 18 22 50 c38 86 119 155 219 188 63 21 76
39 103 137 37 134 135 294 210 345 78 53 83 66 90 239 6 140 9 159 33 209 36
73 73 102 241 189 77 39 172 93 211 119 86 58 175 151 210 221 25 48 26 57 22
171 -9 219 -77 316 -222 316 -22 0 -41 12 -73 45 -74 78 -123 202 -123 313 0
89 95 343 175 467 44 70 162 198 255 276 41 35 97 87 125 115 27 28 89 74 138
102 48 28 118 75 156 104 38 29 242 161 453 292 434 272 509 321 662 434 336
250 674 621 1013 1112 202 294 305 497 415 820 47 140 80 266 109 425 19 98
23 157 23 320 1 198 1 202 -42 407 -45 218 -80 334 -129 433 -52 105 -58 126
-42 136 16 10 38 4 89 -21z m884 -1210 c113 -150 203 -342 225 -480 25 -153
-55 -351 -213 -528 -31 -34 -60 -71 -66 -82 -22 -41 27 -21 122 50 51 38 99
70 106 70 21 0 14 -76 -23 -220 -77 -308 -148 -437 -307 -555 -48 -36 -88 -70
-88 -76 0 -20 50 -6 149 41 l104 50 -7 -32 c-8 -43 -82 -192 -143 -290 -51
-82 -64 -92 -289 -242 -61 -41 -115 -79 -118 -85 -13 -20 51 -12 134 18 44 16
80 25 80 20 0 -33 -150 -255 -212 -316 -24 -23 -88 -67 -143 -98 -123 -69
-245 -147 -245 -157 0 -5 26 -8 59 -8 48 0 63 4 85 25 15 14 31 25 36 25 44 0
-19 -78 -221 -275 -157 -153 -180 -166 -286 -166 -100 0 -98 3 107 216 126
131 163 178 158 202 -2 13 -18 3 -73 -46 -74 -67 -147 -121 -164 -121 -40 0
19 86 177 257 139 151 208 237 236 291 10 19 32 53 51 77 33 44 72 131 63 140
-13 13 -42 -17 -161 -169 -134 -170 -272 -326 -288 -326 -5 0 -14 12 -19 26
-13 33 1 60 89 166 207 251 486 686 609 948 146 312 309 813 286 875 -10 25
-18 7 -64 -134 -23 -68 -45 -131 -51 -140 -20 -31 -1 82 29 174 53 160 111
507 132 788 6 78 13 162 16 186 l6 43 25 -23 c14 -13 57 -67 97 -119z m-370
-1216 c-55 -149 -174 -400 -266 -563 -86 -152 -316 -505 -408 -626 -30 -38
-75 -104 -100 -145 -49 -79 -82 -100 -95 -61 -9 28 12 63 96 161 265 312 513
715 698 1134 70 159 98 212 107 203 3 -3 -11 -49 -32 -103z m720 -57 c38 -50
83 -156 113 -265 34 -124 39 -295 10 -382 -30 -90 -85 -194 -133 -250 -70 -82
-55 -92 51 -34 90 50 95 42 61 -88 -26 -98 -111 -288 -185 -415 -39 -66 -171
-175 -266 -218 -75 -34 -101 -57 -90 -76 10 -15 72 -5 148 22 32 12 61 19 64
15 17 -17 -122 -200 -226 -298 -68 -65 -142 -106 -261 -148 -133 -46 -130 -68
11 -77 l93 -6 -65 -61 c-103 -95 -292 -195 -371 -196 -69 0 -56 -29 22 -51 25
-7 49 -15 53 -19 7 -6 -166 -147 -303 -247 -113 -82 -180 -111 -180 -80 0 8
19 43 42 78 47 74 109 225 143 353 13 48 32 100 41 115 10 14 95 103 190 196
167 165 234 243 234 272 0 19 -21 3 -207 -169 -161 -148 -219 -195 -229 -185
-12 11 42 74 244 281 112 115 247 263 300 330 173 216 368 528 449 721 70 164
48 167 -37 5 -83 -159 -166 -285 -335 -510 -110 -146 -180 -226 -330 -376
-217 -219 -365 -343 -365 -306 0 4 88 102 196 217 304 326 416 473 588 774
199 347 340 665 418 945 48 175 65 195 112 133z m263 -1199 c56 -83 62 -103
74 -226 20 -214 -17 -336 -176 -577 -84 -127 -107 -150 -212 -219 -83 -54
-104 -86 -58 -86 34 0 86 27 162 84 33 25 63 46 66 46 8 0 -19 -109 -38 -155
-28 -68 -120 -196 -192 -271 -116 -118 -168 -147 -405 -219 -83 -26 -119 -47
-104 -62 4 -4 52 -6 108 -5 114 3 112 6 53 -83 -48 -72 -101 -118 -185 -160
-107 -54 -169 -76 -240 -86 -83 -12 -124 -28 -111 -43 6 -7 37 -25 71 -41 33
-16 60 -31 60 -34 0 -8 -149 -98 -185 -111 -16 -6 -70 -14 -120 -16 -147 -8
-164 -19 -105 -62 17 -13 30 -27 30 -33 0 -11 -167 -93 -212 -104 -34 -9 -35
1 -6 56 18 35 21 57 20 129 -2 99 -6 93 88 142 190 99 484 325 437 335 -20 5
-62 -18 -223 -123 -128 -83 -318 -178 -339 -170 -44 17 3 55 219 180 223 128
737 562 775 654 6 15 31 40 56 55 59 38 147 134 221 242 80 118 99 154 85 168
-18 18 -47 -5 -119 -98 -132 -172 -559 -581 -772 -739 -125 -94 -415 -275
-523 -327 -75 -36 -137 -50 -137 -31 0 15 32 38 170 117 158 91 202 121 373
253 404 313 789 703 981 992 115 174 267 462 343 653 8 20 18 37 22 37 3 0 25
-28 48 -62z m-2040 -230 c48 -33 73 -91 73 -169 0 -228 -106 -457 -316 -682
-79 -84 -433 -324 -674 -456 -185 -102 -301 -148 -463 -185 -35 -8 -43 10 -27
59 17 51 51 73 350 225 251 128 318 169 305 190 -8 12 -46 -2 -271 -103 -218
-98 -382 -167 -396 -167 -5 0 -8 15 -6 33 3 30 10 35 103 83 216 109 515 324
515 370 0 20 -11 18 -50 -11 -19 -14 -39 -25 -45 -25 -6 0 -81 -41 -166 -91
-201 -119 -354 -199 -379 -199 -33 0 -23 27 23 58 23 16 101 62 172 102 269
150 395 246 395 302 0 15 -3 28 -6 28 -4 0 -79 -47 -168 -104 -276 -178 -449
-266 -520 -266 -69 0 -38 31 129 127 374 217 615 396 884 657 86 84 177 164
201 178 114 65 275 87 337 46z m317 -801 c66 -43 80 -127 45 -257 -24 -92 -67
-195 -99 -240 -11 -15 -20 -35 -20 -43 0 -9 -8 -22 -19 -29 -10 -7 -21 -23
-25 -36 -4 -12 -24 -34 -44 -49 -20 -15 -68 -54 -106 -87 -54 -47 -115 -84
-290 -171 -282 -141 -402 -182 -692 -235 -254 -46 -318 -50 -334 -21 -27 52
-17 58 218 140 248 86 318 118 365 165 l42 41 -32 3 c-21 2 -98 -19 -210 -58
-284 -97 -384 -123 -397 -101 -9 14 49 46 237 130 188 84 308 151 380 213 99
84 46 75 -188 -32 -93 -43 -231 -100 -305 -128 -193 -71 -210 -76 -222 -64
-14 14 46 48 217 122 466 204 797 405 1015 615 136 132 171 146 337 141 74 -2
108 -7 127 -19z m1380 -607 c9 -68 -1 -137 -36 -255 -40 -132 -98 -249 -155
-314 -25 -29 -103 -99 -173 -156 -159 -130 -160 -131 -126 -146 23 -11 37 -8
104 19 87 36 102 39 102 16 0 -21 -165 -184 -255 -252 -139 -105 -248 -142
-417 -142 -71 0 -90 -3 -95 -15 -9 -24 26 -55 69 -61 21 -4 38 -12 38 -19 0
-38 -150 -120 -291 -160 -52 -15 -164 -49 -249 -77 -171 -55 -212 -58 -257
-16 -38 35 -47 58 -31 73 7 8 58 32 112 54 137 57 158 77 89 83 l-38 3 45 28
c25 16 78 46 119 69 40 22 69 44 65 48 -5 5 -61 -2 -124 -16 -63 -14 -135 -24
-160 -22 -44 3 -42 4 77 45 221 77 462 187 667 305 115 67 316 249 316 287 0
15 -21 5 -162 -80 -244 -148 -472 -253 -816 -375 -127 -45 -166 -53 -160 -31
6 20 138 81 265 121 121 39 478 218 664 332 252 155 466 337 652 554 95 111
133 150 146 150 5 0 11 -22 15 -50z m-1686 -455 c98 -23 115 -35 136 -99 27
-78 18 -145 -30 -237 -30 -57 -50 -81 -99 -117 -83 -61 -132 -89 -239 -135
-189 -81 -375 -108 -781 -110 -284 -2 -525 33 -525 76 0 22 32 27 205 27 210
1 347 14 426 41 74 25 195 84 204 99 10 17 -39 11 -86 -9 -60 -27 -207 -41
-396 -40 -175 1 -216 7 -221 29 -6 33 108 69 268 85 218 23 531 117 498 150
-3 4 -66 -5 -140 -19 -215 -41 -464 -64 -497 -47 -56 31 -3 52 199 81 235 33
663 150 788 215 39 20 61 24 137 24 50 1 118 -6 153 -14z m-1318 -799 c58 -13
161 -29 230 -35 69 -7 187 -19 263 -27 313 -32 529 -155 634 -359 53 -103 77
-185 68 -233 -10 -55 -72 -180 -98 -196 -12 -8 -50 -20 -84 -27 -80 -16 -92
-11 -260 117 -69 53 -144 104 -167 114 -142 62 -204 86 -309 122 -250 83 -537
235 -537 284 0 19 23 17 100 -7 76 -24 280 -39 280 -21 0 16 -39 34 -140 67
-113 37 -180 65 -180 77 0 5 12 7 28 4 104 -21 461 -41 482 -27 22 15 -25 29
-150 47 -116 16 -192 37 -210 60 -7 7 -24 14 -38 14 -25 0 -62 25 -62 42 0 13
39 9 150 -16z m1325 -126 c3 -5 -3 -10 -14 -10 -12 0 -21 5 -21 10 0 6 6 10
14 10 8 0 18 -4 21 -10z m-135 -19 c0 -6 -5 -13 -10 -16 -15 -9 -43 3 -35 15
8 13 45 13 45 1z m-1440 -266 c50 -25 139 -74 198 -109 59 -35 122 -66 140
-69 19 -4 80 -27 135 -51 56 -24 127 -51 157 -61 229 -74 360 -243 360 -467 0
-85 -29 -166 -78 -217 -39 -41 -58 -45 -257 -66 l-61 -6 -95 98 c-53 54 -150
156 -215 227 -85 92 -158 158 -256 232 -175 132 -330 279 -326 308 5 33 32 30
78 -9 93 -77 350 -177 350 -136 0 5 -41 41 -91 81 -50 39 -89 74 -86 77 3 3
57 -15 119 -40 148 -59 157 -62 164 -43 10 26 -13 50 -93 95 -127 72 -263 162
-274 182 -17 33 34 23 131 -26z m-284 -375 c38 -28 105 -76 149 -107 85 -60
377 -346 444 -435 21 -29 61 -96 88 -148 39 -77 48 -104 47 -145 -1 -105 -74
-225 -171 -282 l-44 -25 -105 27 c-83 22 -110 34 -128 56 -13 15 -69 136 -126
268 -110 260 -163 354 -294 521 -112 142 -146 191 -146 207 0 25 19 13 112
-69 134 -118 274 -206 294 -185 10 10 -22 47 -90 103 -36 30 -66 58 -66 63 0
5 48 -15 106 -45 100 -51 144 -65 144 -46 0 5 -54 52 -120 107 -138 112 -206
185 -172 185 5 0 40 -23 78 -50z m-77 -110 c14 -21 14 -23 1 -16 -25 15 -60
49 -60 59 0 14 41 -16 59 -43z m-233 -128 c35 -34 159 -190 201 -252 16 -25
39 -70 51 -100 11 -30 45 -112 76 -182 30 -70 60 -146 66 -168 24 -91 -33
-224 -113 -260 -51 -24 -162 -27 -212 -6 -48 20 -62 56 -100 247 -19 92 -40
190 -49 217 -22 74 -82 207 -133 295 -65 112 -47 116 59 11 33 -32 84 -93 113
-134 85 -120 116 -136 100 -52 -10 52 -38 104 -117 215 -39 54 -68 101 -64
104 9 9 32 -14 136 -137 101 -119 170 -190 170 -175 0 15 -106 209 -162 295
-30 47 -57 91 -62 98 -13 22 11 12 40 -16z m-416 -248 c0 -8 -7 -14 -15 -14
-15 0 -21 21 -9 33 10 9 24 -2 24 -19z"/>
<path d="M10153 5250 c-16 -22 -53 -81 -83 -131 -30 -50 -85 -123 -122 -162
-66 -70 -82 -102 -55 -113 38 -14 140 68 208 168 69 102 126 278 89 278 -5 0
-22 -18 -37 -40z"/>
<path d="M8811 3583 c-21 -17 -21 -19 -6 -69 27 -91 75 -106 105 -33 11 26 11
38 -1 73 -12 35 -19 41 -45 44 -18 2 -39 -4 -53 -15z"/>
<path d="M8958 2903 c-12 -3 -18 -14 -18 -32 0 -36 41 -115 62 -119 21 -4 88
55 88 79 0 35 -87 83 -132 72z"/>
<path d="M8737 2180 c-15 -12 -27 -27 -27 -34 0 -14 69 -86 82 -86 14 0 50 88
46 113 -4 32 -64 36 -101 7z"/>
<path d="M8345 1640 c-10 -33 19 -70 56 -70 38 0 48 24 22 58 -26 35 -69 41
-78 12z"/>
<path d="M7901 1244 c-17 -14 -29 -30 -25 -35 8 -13 78 -11 92 3 17 17 15 45
-4 52 -25 9 -31 8 -63 -20z"/>
<path d="M8010 313 c1 -32 139 -143 176 -143 44 0 25 27 -62 89 -78 56 -114
73 -114 54z"/>
<path d="M11183 3925 c-82 -85 -110 -125 -85 -125 21 0 129 91 172 145 31 39
39 75 18 75 -7 0 -55 -43 -105 -95z"/>
<path d="M10409 4604 c-5 -15 -14 -61 -20 -102 -18 -131 -64 -224 -159 -327
-67 -72 -96 -113 -86 -123 13 -12 132 57 193 113 100 90 153 243 134 382 -5
34 -12 67 -16 73 -12 19 -35 10 -46 -16z"/>
<path d="M10282 4468 c-22 -24 -82 -145 -82 -165 0 -40 65 22 107 102 37 71
21 111 -25 63z"/>
<path d="M10736 3861 c-4 -5 -9 -45 -12 -88 -4 -43 -15 -97 -25 -120 -11 -23
-19 -47 -19 -53 0 -16 -176 -195 -232 -237 -27 -19 -48 -41 -48 -49 0 -46 142
27 236 121 95 95 154 210 162 314 4 55 1 76 -12 96 -17 25 -40 33 -50 16z"/>
<path d="M10512 3605 c-72 -67 -88 -95 -53 -95 36 0 139 121 129 152 -2 5 -36
-20 -76 -57z"/>
<path d="M10595 2770 c-84 -96 -257 -212 -400 -269 -44 -18 -91 -38 -104 -45
-24 -13 -24 -14 -3 -20 26 -9 167 9 242 30 77 22 125 52 198 125 77 77 94 107
90 161 l-3 40 -20 -22z"/>
<path d="M10345 2721 c-59 -21 -135 -67 -135 -81 0 -6 11 -15 25 -22 19 -8 29
-8 43 3 11 8 47 33 81 57 34 24 59 47 56 53 -8 12 -11 11 -70 -10z"/>
<path d="M10195 1632 c-40 -25 -58 -49 -51 -67 3 -8 14 -15 24 -15 23 0 102
66 102 86 0 20 -39 18 -75 -4z"/>
<path d="M10324 1579 c-10 -12 -54 -44 -96 -72 -43 -28 -78 -54 -78 -58 0 -47
47 -51 110 -8 57 39 81 72 90 121 8 43 2 47 -26 17z"/>
<path d="M9878 1063 c-5 -98 -19 -129 -73 -163 -27 -17 -50 -20 -138 -20 -88
0 -105 -2 -101 -14 8 -21 62 -44 121 -51 44 -6 58 -4 102 21 32 17 62 44 81
72 30 45 55 138 47 169 -3 10 -8 30 -11 46 -12 52 -24 27 -28 -60z"/>
<path d="M9717 1043 c-11 -10 -8 -71 3 -78 22 -14 63 44 53 73 -5 13 -45 17
-56 5z"/>
<path d="M9197 566 c-39 -14 -77 -42 -77 -58 0 -13 47 -9 83 6 18 8 46 26 62
40 l30 25 -30 0 c-16 0 -47 -6 -68 -13z"/>
<path d="M9299 524 c-66 -50 -112 -67 -193 -73 -45 -3 -81 -11 -83 -17 -7 -20
56 -73 93 -80 83 -15 190 57 214 145 6 24 10 45 7 47 -2 2 -19 -8 -38 -22z"/>
<path d="M8603 481 c-13 -3 -32 -14 -44 -24 -28 -24 -12 -41 37 -40 45 1 73
26 58 50 -13 20 -22 23 -51 14z"/>
<path d="M8665 348 c-65 -14 -165 -49 -165 -58 0 -41 87 -52 156 -21 37 17 74
53 74 72 0 13 -25 16 -65 7z"/>
<path d="M1775 9100 c-158 -83 -409 -341 -529 -543 -33 -56 -66 -147 -81 -219
-3 -15 -39 -69 -80 -120 -84 -103 -129 -189 -139 -261 -8 -65 -27 -98 -101
-177 -35 -37 -73 -87 -86 -111 -12 -24 -37 -62 -56 -84 -71 -81 -180 -337
-213 -500 -16 -77 -6 -339 14 -370 41 -63 26 -169 -38 -265 -25 -36 -94 -163
-155 -281 l-111 -216 0 -338 0 -337 -59 -64 c-70 -75 -117 -165 -132 -254 -13
-77 -5 -239 16 -326 28 -121 113 -313 193 -439 22 -35 38 -81 53 -150 22 -103
49 -179 116 -325 55 -119 70 -172 77 -273 16 -228 116 -548 204 -649 46 -52
54 -76 62 -175 6 -86 9 -97 46 -150 52 -76 165 -196 234 -247 30 -22 89 -59
130 -82 41 -23 111 -63 156 -90 108 -67 242 -118 587 -225 160 -49 297 -95
304 -101 10 -8 12 -30 7 -87 -12 -146 7 -211 108 -359 43 -64 94 -76 296 -69
l164 5 -8 -126 c-5 -70 -9 -168 -9 -219 0 -87 1 -93 31 -130 83 -103 181 -142
376 -150 l127 -6 6 -46 c15 -116 28 -179 44 -216 21 -47 101 -124 158 -154 88
-44 206 -45 309 0 72 30 117 26 159 -17 20 -19 69 -51 110 -71 l75 -35 181 1
c173 1 182 0 212 -21 27 -19 45 -23 112 -23 96 0 145 16 197 63 57 51 72 89
106 259 36 178 73 295 109 342 14 18 51 45 82 60 50 23 68 26 161 25 63 0 147
-9 210 -22 245 -49 471 -55 560 -15 51 22 100 74 100 105 0 30 -135 160 -258
247 -56 40 -108 83 -114 94 -6 12 -19 55 -30 97 -29 116 -59 168 -166 281
l-99 104 -6 125 c-12 260 -97 396 -305 484 -104 44 -239 132 -309 202 -59 58
-83 121 -83 213 0 90 32 132 155 201 122 69 210 198 236 344 15 91 7 239 -21
345 -21 82 -60 174 -79 186 -6 3 -24 32 -42 65 -40 76 -164 225 -260 314 -41
38 -119 100 -174 139 -55 39 -192 139 -305 222 -254 187 -313 227 -520 350
-343 204 -536 341 -711 501 -53 49 -162 149 -241 221 -169 155 -215 208 -344
392 -52 75 -137 195 -189 266 -52 72 -104 149 -115 171 -11 23 -30 50 -41 60
-46 42 -189 306 -260 480 -79 196 -103 280 -140 498 -51 295 -51 559 2 786 28
122 87 274 201 518 119 256 129 282 116 306 -5 10 -37 35 -71 57 -79 51 -137
54 -222 9z m8 -364 c-1 -15 -27 -89 -57 -164 -57 -141 -78 -228 -131 -535 -30
-179 -31 -278 -4 -462 69 -475 213 -843 504 -1290 171 -264 484 -665 634 -815
226 -226 580 -482 1122 -815 116 -71 274 -173 350 -225 76 -52 177 -119 223
-149 112 -71 376 -316 456 -423 112 -151 230 -430 230 -548 0 -83 -85 -271
-141 -312 -14 -10 -55 -25 -92 -33 -85 -18 -119 -42 -152 -108 -30 -63 -49
-202 -40 -294 15 -143 150 -269 455 -424 223 -113 260 -170 260 -400 0 -70 4
-139 9 -152 5 -13 39 -48 75 -77 100 -79 199 -232 221 -340 21 -107 20 -106
98 -143 128 -61 246 -168 247 -224 0 -41 -32 -48 -205 -47 -175 2 -259 15
-409 65 -114 38 -195 49 -285 39 -83 -9 -104 -23 -156 -110 -48 -80 -81 -172
-120 -330 -55 -222 -85 -280 -164 -324 -68 -37 -89 -34 -149 22 l-52 47 39
166 c46 194 72 286 112 391 27 68 52 108 63 97 2 -2 -7 -38 -20 -79 -28 -90
-31 -138 -7 -147 22 -8 41 16 115 150 86 155 138 209 88 92 -11 -26 -20 -60
-20 -75 0 -102 89 36 160 250 29 86 39 160 21 160 -5 0 -25 -22 -45 -50 -19
-27 -47 -57 -61 -66 -38 -25 -101 -20 -181 13 -81 34 -110 69 -119 147 -13
100 12 168 104 293 28 38 24 69 -17 114 l-27 30 -85 -72 c-47 -40 -98 -80
-115 -91 -64 -38 -166 -14 -235 57 -29 30 -34 43 -38 92 -6 89 25 164 150 355
29 46 30 49 14 73 -32 49 -52 37 -182 -110 -50 -56 -53 -57 -90 -51 -133 24
-279 192 -261 300 8 51 71 140 158 223 82 79 95 106 63 137 -20 21 -53 20
-144 -4 -115 -30 -133 -28 -185 25 -74 73 -135 182 -135 240 0 79 65 195 138
248 87 63 122 71 244 56 82 -9 113 -10 133 -1 52 24 26 48 -80 73 -165 39
-269 152 -269 293 1 105 52 190 155 257 82 52 167 35 268 -55 28 -25 60 -46
70 -46 41 0 42 72 2 127 -66 91 -175 154 -260 150 -60 -2 -348 145 -550 281
-486 325 -730 566 -868 857 -31 66 -36 90 -45 193 -15 189 -18 216 -28 232 -8
13 -12 13 -27 -3 -15 -15 -19 -39 -21 -149 -3 -111 0 -147 19 -225 22 -91 22
-93 3 -114 -17 -19 -26 -21 -86 -16 -98 8 -156 41 -272 155 -107 106 -196 207
-196 224 0 12 26 8 140 -23 95 -25 128 -22 110 11 -13 24 -38 38 -99 54 -74
19 -246 122 -285 170 -82 100 -236 321 -236 338 0 22 15 22 99 3 35 -9 66 -14
68 -11 10 10 -109 78 -159 90 -66 16 -318 410 -302 473 7 25 17 23 84 -19 55
-35 140 -62 153 -49 6 6 -24 31 -75 64 -174 112 -238 212 -307 479 -29 112
-52 248 -43 248 9 0 97 -53 143 -86 26 -19 56 -34 68 -34 21 0 21 1 5 31 -8
17 -41 59 -73 93 -71 77 -113 138 -154 224 -31 65 -32 71 -30 188 3 212 52
470 87 466 6 -1 15 -20 21 -44 13 -52 56 -132 70 -130 13 2 23 84 24 207 1
111 13 160 61 256 93 183 241 332 389 390 56 22 67 19 64 -15z m-829 -1117 c3
-34 6 -92 6 -128 0 -105 38 -406 65 -516 14 -55 25 -109 25 -121 0 -11 20 -88
44 -170 55 -191 58 -204 47 -204 -9 0 -71 148 -71 169 0 23 -42 121 -52 121
-33 0 32 -252 139 -540 164 -442 392 -829 783 -1330 56 -72 67 -101 52 -133
-9 -21 -14 -18 -89 58 -44 44 -141 158 -217 253 -76 94 -142 172 -147 172 -58
0 135 -289 361 -540 119 -132 175 -209 168 -230 -4 -13 -61 25 -164 109 -44
36 -80 58 -82 52 -8 -23 54 -98 196 -238 79 -78 142 -148 140 -155 -7 -21
-150 -23 -193 -2 -39 18 -297 269 -363 353 -38 48 -45 71 -22 71 5 0 21 -11
36 -25 22 -21 37 -25 85 -25 33 0 59 3 59 8 0 10 -155 109 -264 168 -107 59
-181 134 -278 283 -70 108 -82 139 -50 126 108 -46 213 -69 212 -47 -1 4 -60
47 -133 95 -213 142 -230 156 -270 215 -45 67 -157 287 -157 308 0 22 20 17
113 -26 81 -38 127 -50 127 -32 0 12 -57 63 -113 103 -83 58 -219 252 -231
331 -4 24 -27 125 -53 226 -25 100 -43 185 -40 188 10 11 84 -29 153 -82 125
-95 127 -67 6 84 -88 112 -150 219 -172 302 -36 133 19 387 113 528 60 90 209
282 218 282 3 0 9 -28 13 -61z m322 -1404 c53 -116 110 -244 128 -285 18 -41
55 -109 83 -150 27 -41 60 -95 73 -120 42 -84 271 -404 423 -590 86 -104 96
-125 75 -147 -9 -9 -23 -13 -31 -10 -7 3 -62 76 -121 164 -59 87 -152 223
-207 303 -55 80 -141 213 -191 295 -150 250 -348 673 -348 747 0 39 17 9 116
-207z m-748 72 c6 -7 42 -107 80 -222 115 -345 234 -605 423 -925 50 -85 102
-176 115 -203 34 -66 185 -243 433 -506 116 -124 211 -229 211 -233 0 -37
-147 86 -376 316 -157 158 -227 236 -323 366 -162 217 -235 329 -316 480 -37
69 -74 132 -82 140 -52 51 77 -250 178 -417 167 -275 358 -512 640 -794 195
-195 224 -231 211 -255 -8 -14 -40 13 -199 164 -201 192 -241 227 -249 219
-20 -19 123 -183 299 -344 106 -97 157 -163 157 -204 0 -37 54 -188 111 -311
68 -148 78 -178 57 -178 -31 0 -263 171 -385 283 -62 57 -56 87 17 87 33 0 49
18 29 31 -8 5 -27 9 -44 9 -80 2 -292 119 -383 213 l-43 44 91 6 c100 6 134
21 102 43 -10 7 -45 20 -77 30 -33 9 -78 25 -100 34 -22 10 -57 25 -78 34 -21
9 -63 40 -93 68 -83 78 -256 310 -242 323 3 3 33 -6 67 -20 80 -33 151 -44
151 -23 0 20 -25 40 -90 72 -74 37 -167 105 -216 157 -112 122 -304 599 -241
599 7 0 28 -11 47 -23 37 -25 130 -60 138 -52 3 2 -26 37 -64 78 -69 73 -74
82 -131 242 -23 64 -25 80 -20 185 8 178 70 383 142 469 29 34 38 37 53 18z
m-159 -1389 c201 -409 300 -556 591 -873 273 -298 675 -627 1004 -824 152 -90
189 -122 168 -143 -12 -12 -182 78 -350 184 -51 32 -108 65 -125 74 -75 39
-383 281 -507 400 -188 179 -384 384 -459 482 -66 85 -101 105 -101 59 0 -63
281 -407 332 -407 7 0 24 -20 37 -45 67 -126 535 -509 838 -686 48 -28 105
-63 126 -77 40 -26 50 -62 18 -62 -36 0 -208 89 -375 194 -116 73 -173 103
-180 96 -25 -25 141 -159 369 -297 146 -88 143 -83 165 -233 6 -41 19 -89 30
-107 l19 -33 -25 0 c-27 0 -139 46 -201 82 l-36 22 37 30 c64 54 53 62 -106
70 -105 5 -135 16 -252 91 l-59 38 70 32 c39 18 73 37 77 43 9 15 -40 31 -126
42 -51 6 -100 21 -150 44 -40 19 -89 40 -108 48 -44 16 -146 121 -183 188
l-29 51 101 -3 c66 -2 104 1 112 9 16 16 -27 36 -165 80 -162 51 -237 93 -332
188 -121 121 -197 242 -229 364 -9 35 -14 65 -12 68 3 2 39 -21 81 -51 103
-74 166 -93 166 -51 0 8 -44 43 -98 78 -95 64 -99 68 -191 202 -91 134 -143
237 -163 323 -5 23 -8 118 -6 210 3 140 6 173 22 202 18 35 83 120 91 120 3 0
54 -100 114 -222z m2091 -60 c95 -23 189 -74 243 -135 237 -262 555 -508 947
-733 201 -115 233 -147 138 -138 -68 7 -228 88 -450 230 -94 60 -185 116 -200
124 -27 14 -28 14 -28 -13 0 -57 147 -169 425 -322 163 -90 196 -114 179 -131
-17 -17 -118 28 -294 131 -200 116 -357 195 -367 185 -23 -24 343 -284 527
-375 36 -18 72 -36 80 -40 17 -9 27 -71 12 -71 -9 0 -320 133 -561 239 -51 23
-96 40 -99 37 -25 -26 66 -83 373 -236 229 -113 248 -124 261 -157 9 -19 14
-47 12 -62 -3 -23 -7 -26 -38 -23 -129 9 -576 228 -800 390 -58 42 -146 104
-197 139 -108 75 -191 162 -283 299 -109 163 -166 344 -158 502 4 99 29 152
78 169 37 14 121 10 200 -9z m-207 -808 c27 -12 90 -62 140 -109 145 -136 259
-221 435 -323 137 -80 578 -301 672 -336 47 -18 96 -38 110 -45 28 -14 41 -57
17 -57 -33 0 -404 149 -586 236 -74 35 -142 64 -152 64 -34 0 -33 -23 3 -54
39 -34 337 -189 488 -255 127 -55 166 -79 151 -94 -8 -8 -26 -8 -72 2 -75 15
-311 91 -405 129 -82 34 -125 44 -143 33 -45 -28 109 -114 371 -205 223 -78
246 -92 234 -142 l-7 -27 -82 6 c-111 7 -487 81 -601 117 -141 45 -533 248
-636 330 -47 37 -95 72 -107 78 -12 7 -25 26 -28 44 -4 17 -16 40 -26 51 -23
25 -89 152 -122 237 -48 123 -45 260 7 309 36 34 72 41 186 37 84 -2 114 -7
153 -26z m-1561 -672 c253 -295 502 -497 833 -676 311 -167 424 -221 507 -239
85 -19 260 -98 266 -120 6 -22 -34 -15 -174 32 -227 76 -647 273 -859 404
-133 82 -150 67 -42 -40 161 -159 449 -324 801 -458 109 -42 201 -82 204 -89
5 -15 -13 -13 -178 24 -158 35 -156 23 13 -71 48 -27 87 -52 87 -56 0 -3 -14
-9 -31 -13 -17 -3 -28 -10 -24 -16 9 -14 78 -48 154 -76 93 -34 102 -55 47
-110 -43 -43 -77 -44 -194 -4 -48 17 -130 42 -182 56 -214 57 -304 92 -372
146 -47 37 -49 62 -7 74 37 11 59 38 43 54 -5 5 -59 15 -120 20 -229 22 -332
78 -546 298 -117 119 -115 135 5 88 88 -35 115 -40 132 -26 21 17 8 30 -140
145 -66 51 -136 110 -156 132 -85 94 -183 319 -198 453 -11 100 -4 190 14 190
7 0 60 -55 117 -122z m1965 -444 c312 -104 448 -136 756 -179 60 -8 113 -17
118 -20 16 -10 10 -34 -12 -45 -34 -19 -277 4 -497 46 -74 14 -137 23 -140 19
-13 -13 41 -45 118 -69 91 -29 281 -68 430 -89 148 -20 246 -68 199 -98 -19
-12 -300 -11 -432 1 -60 6 -127 18 -150 26 -57 22 -97 28 -97 16 0 -15 41 -39
126 -72 142 -57 172 -61 441 -68 138 -4 255 -11 259 -15 14 -14 -12 -42 -52
-55 -61 -21 -373 -34 -659 -29 -246 5 -266 7 -375 35 -358 92 -576 252 -605
445 -8 49 16 130 48 165 34 36 188 74 267 64 19 -2 135 -37 257 -78z m1043
-739 c-12 -13 -34 -26 -48 -30 -15 -4 -50 -18 -80 -32 -40 -19 -80 -27 -164
-34 -65 -6 -126 -17 -147 -27 -36 -17 -35 -17 124 -20 128 -2 284 8 336 21 4
1 8 -2 9 -8 3 -11 -49 -34 -194 -87 -49 -18 -92 -39 -94 -47 -7 -22 206 -9
282 18 33 12 65 21 73 21 22 0 15 -24 -14 -52 -78 -73 -270 -165 -568 -273
-249 -89 -319 -127 -458 -242 -119 -99 -135 -106 -194 -92 -63 15 -92 31 -125
66 -31 32 -65 108 -74 163 -14 84 65 266 158 366 69 73 106 97 234 153 117 50
197 68 401 86 207 19 286 29 433 59 63 12 119 21 123 18 5 -2 -1 -15 -13 -27z
m-1430 -125 c0 -5 -9 -10 -20 -10 -11 0 -20 5 -20 10 0 6 9 10 20 10 11 0 20
-4 20 -10z m155 -20 c3 -6 -1 -13 -9 -16 -21 -8 -49 3 -41 16 8 13 42 13 50 0z
m1525 -228 c0 -23 -136 -115 -260 -176 -105 -51 -159 -114 -107 -124 9 -2 87
28 173 67 85 39 158 71 162 71 12 0 -62 -59 -149 -119 -47 -33 -91 -66 -97
-74 -19 -22 11 -30 62 -16 68 18 238 103 284 142 49 42 51 42 77 23 18 -13 18
-14 -3 -44 -31 -43 -143 -144 -232 -210 -41 -31 -107 -80 -147 -109 -40 -30
-108 -96 -151 -146 -194 -227 -314 -339 -383 -357 -45 -12 -199 9 -249 35 -93
48 -131 167 -106 326 19 116 60 203 122 258 55 48 178 113 259 136 84 24 163
59 448 201 224 112 297 140 297 116z m230 -381 c-5 -11 -65 -67 -133 -124 -67
-58 -133 -117 -146 -131 -23 -24 -23 -26 -5 -26 31 0 173 73 229 117 28 21 57
43 65 48 27 15 -64 -76 -133 -132 -90 -74 -112 -114 -54 -99 39 9 166 97 260
179 138 121 145 102 21 -63 -195 -261 -263 -380 -379 -665 -91 -223 -81 -212
-229 -252 l-96 -25 -43 25 c-61 36 -121 99 -148 155 -30 63 -31 167 -1 233 24
54 128 213 184 281 73 88 364 339 517 446 79 56 109 66 91 33z m190 -366 c-71
-114 -135 -230 -145 -265 -7 -25 -7 -25 25 5 18 17 67 73 110 125 88 107 167
187 176 178 3 -4 -21 -42 -54 -85 -94 -121 -182 -313 -144 -313 5 0 51 51 100
113 93 116 198 225 207 216 3 -3 -26 -71 -64 -150 -93 -194 -115 -259 -151
-451 -17 -90 -38 -177 -47 -195 -30 -65 -146 -85 -253 -44 -89 34 -98 45 -116
139 -14 76 -14 87 1 140 40 137 180 428 248 515 74 95 161 190 165 179 2 -6
-24 -54 -58 -107z m480 -134 c0 -12 -26 -32 -33 -25 -9 10 4 34 19 34 8 0 14
-4 14 -9z"/>
<path d="M2600 5256 c0 -49 35 -154 68 -207 69 -108 198 -220 238 -205 27 10
14 39 -48 105 -35 36 -89 107 -121 156 -103 158 -122 185 -129 185 -5 0 -8
-15 -8 -34z"/>
<path d="M3890 3581 c-5 -11 -10 -37 -10 -58 0 -30 7 -46 30 -68 25 -24 32
-26 45 -15 23 19 45 65 45 94 0 51 -88 88 -110 47z"/>
<path d="M3775 2903 c-49 -12 -82 -67 -63 -107 12 -29 58 -51 86 -42 19 6 62
81 62 108 0 28 -46 50 -85 41z"/>
<path d="M3964 2186 c-9 -24 4 -82 24 -107 16 -19 21 -20 40 -8 34 21 47 62
30 96 -10 22 -21 29 -51 31 -27 2 -39 -1 -43 -12z"/>
<path d="M4384 1635 c-33 -33 -28 -59 13 -63 23 -2 35 3 47 20 20 28 20 33 0
52 -21 22 -31 20 -60 -9z"/>
<path d="M4833 1263 c-16 -6 -17 -35 -1 -51 14 -14 84 -16 92 -3 7 11 -50 61
-67 60 -7 0 -18 -3 -24 -6z"/>
<path d="M4709 290 c-24 -16 -69 -52 -99 -79 -44 -41 -51 -50 -34 -51 52 -1
194 103 194 142 0 25 -9 23 -61 -12z"/>
<path d="M1500 3999 c0 -38 177 -205 197 -185 10 9 -25 54 -102 132 -75 77
-95 88 -95 53z"/>
<path d="M2352 4618 c-32 -40 -21 -272 17 -347 25 -47 140 -155 215 -200 96
-57 89 -20 -20 101 -85 95 -128 174 -145 268 -6 36 -16 88 -21 117 -10 57 -29
81 -46 61z"/>
<path d="M2471 4481 c-16 -10 -8 -40 24 -91 68 -106 116 -115 75 -14 -22 53
-64 114 -78 114 -4 0 -13 -4 -21 -9z"/>
<path d="M2024 3862 c-57 -38 -37 -199 41 -322 66 -105 241 -240 311 -240 48
0 40 21 -25 65 -51 35 -226 217 -248 258 -8 16 -18 73 -22 126 -4 54 -11 103
-15 109 -8 14 -26 15 -42 4z"/>
<path d="M2210 3655 c0 -10 32 -69 54 -98 24 -32 72 -61 86 -52 21 13 8 35
-47 85 -58 51 -93 76 -93 65z"/>
<path d="M2180 2743 c0 -26 10 -54 28 -84 38 -59 136 -147 190 -170 54 -23
229 -59 289 -59 69 0 44 19 -113 85 -75 32 -148 67 -162 79 -15 12 -45 33 -67
48 -22 14 -68 51 -102 83 l-63 57 0 -39z"/>
<path d="M2380 2732 c0 -6 29 -31 65 -57 36 -25 65 -50 65 -56 0 -14 44 -11
65 5 26 19 12 35 -67 74 -69 34 -128 49 -128 34z"/>
<path d="M2535 1639 c-9 -14 71 -89 95 -89 31 0 25 38 -11 71 -31 29 -72 38
-84 18z"/>
<path d="M2450 1568 c0 -40 41 -103 84 -132 40 -25 89 -31 105 -12 17 20 9 31
-56 73 -30 19 -73 51 -94 70 l-39 35 0 -34z"/>
<path d="M2885 1108 c-8 -42 9 -147 30 -187 25 -50 110 -111 153 -111 45 1
165 41 163 55 0 6 -50 12 -115 15 -95 5 -118 9 -136 25 -36 33 -52 75 -59 154
-6 80 -25 106 -36 49z"/>
<path d="M3030 1022 c0 -17 9 -37 24 -51 l23 -22 5 23 c7 39 -6 73 -30 76 -18
3 -22 -1 -22 -26z"/>
<path d="M3530 573 c0 -15 42 -51 73 -62 76 -29 106 4 35 37 -52 24 -108 37
-108 25z"/>
<path d="M3460 522 c0 -26 61 -122 92 -145 35 -26 144 -28 182 -4 52 35 24 77
-52 77 -52 0 -96 16 -157 57 -57 38 -65 40 -65 15z"/>
<path d="M4130 475 c-7 -8 -10 -21 -7 -28 11 -28 137 -43 137 -16 0 14 -73 59
-96 59 -12 0 -27 -7 -34 -15z"/>
<path d="M4076 352 c-10 -16 35 -73 69 -88 66 -27 155 -9 142 29 -2 6 -46 24
-98 39 -107 31 -106 31 -113 20z"/>
</g>
</svg>
